# xmcd
#
# Track frame offsets:
#	150
#	19100
#	36807
#	51145
#	63550
#	77607
#	92687
#	108750
#	122192
#	140097
#	158017
#	175740
#	194920
#
# Disc length: 2751 seconds
#
# Revision: 0
# Processed by: cddbd v1.5.1PL0 Copyright (c) Steve Scherf et al.
# Submitted via: dBpowerAMP V4.0
#
DISCID=ae0abd0d
DTITLE=Varios - Jaguariúna Rodeo Festival
DYEAR=1900
DGENRE=Country
TTITLE0=Shine them Buckles
TTITLE1=Track02Better Love Next Time
TTITLE2=Jack of all trade
TTITLE3=Western flyer
TTITLE4=To tell you the truth, I lied
TTITLE5=One night stand
TTITLE6=I hate the way I love you
TTITLE7=Look who's needing who
TTITLE8=Big hair
TTITLE9=When hell freezes over
TTITLE10=It must be love
TTITLE11=She's awesome
TTITLE12=Um certo estranho
EXTD=
EXTT0=
EXTT1=
EXTT2=
EXTT3=
EXTT4=
EXTT5=
EXTT6=
EXTT7=
EXTT8=
EXTT9=
EXTT10=
EXTT11=
EXTT12=
PLAYORDER=
